<svg version="1.2" xmlns="http://www.w3.org/2000/svg" viewBox="0 0 1024 1024" width="1024" height="1024"><style>.a{fill:#042449}.b{fill:#99aab5}.c{fill:#ffac33}.d{fill:#aab8c2}.e{fill:#be1931}.f{fill:#e1e8ed}.g{fill:#66757f}.h{fill:none;stroke:#aab8c2;stroke-linecap:round;stroke-linejoin:round;stroke-width:50}.i{fill:#e1e8ed;stroke:#aab8c2;stroke-linecap:round;stroke-linejoin:round;stroke-width:50}</style><path fill-rule="evenodd" class="a" d="m1024 0v1024h-1024v-1024z"/><path class="b" d="m483.9 788.7c-35.3 0-73-24.3-73-92.3 0-38.2 16.3-64.1 32.1-89.2 6.2-9.8 12.4-19.7 18.1-30.7-22.7-26.2-47.7-46.1-64.8-46.1v-36.8c23.7 0 52.6 20.9 78.6 49.2 5.5-18.4 9-40.2 9-67.7h29.2c0 40-6.6 70.4-15.8 95 21.1 28.4 37.8 59.6 44.2 83.6 10 38.1 7 78-7.8 104.1-11.4 19.9-29.1 30.9-49.8 30.9zm-1.9-185.4c-5.4 9.7-10.9 18.6-16.1 26.9-14.4 22.8-25.8 40.9-25.8 66.2 0 45.8 23.8 55.4 43.8 55.4 11.4 0 20.2-5.3 26.1-15.6 9.3-16.4 10.8-44.2 3.8-70.8-4.8-18.1-16.8-40.6-31.8-62.1z"/><path class="c" d="m356.3 364.4h-178.8c-32.2 0-56.6 33.1-54.5 73.8l17 332c2.1 40.8 25.9 73.8 53.2 73.8h147.4c27.2 0 51-33 53.2-73.8l17-332c2.1-40.7-22.3-73.8-54.5-73.8z"/><path class="d" d="m425.5 788.7h-320.9c-1.9 0-3.8 0.4-5.6 1.4-1.8 0.9-3.4 2.3-4.7 4-1.4 1.7-2.5 3.7-3.2 6-0.7 2.2-1.1 4.6-1.1 7v36.9h350.1v-36.9c0-2.4-0.4-4.8-1.1-7-0.7-2.3-1.8-4.3-3.2-6-1.3-1.7-2.9-3.1-4.7-4-1.8-1-3.7-1.4-5.6-1.4z"/><path class="c" d="m498.5 364.4c-2 0-3.9-0.4-5.6-1.4-1.8-0.9-3.4-2.2-4.8-4-1.3-1.7-2.4-3.7-3.1-5.9-0.7-2.3-1.1-4.7-1.1-7.1v-59.7l30.7-77.7c1.7-4.3 4.8-7.7 8.4-9.2 3.7-1.5 7.7-1.2 11.2 1 3.4 2.2 6 6 7.3 10.7 1.2 4.6 0.9 9.7-0.8 14.1l-27.6 69.8v51c0 2.4-0.4 4.8-1.2 7.1-0.7 2.2-1.8 4.2-3.1 5.9-1.4 1.8-3 3.1-4.8 4-1.7 1-3.6 1.4-5.5 1.4z"/><path class="e" d="m534.9 475.1h-11.3c2.5-5.4 4-11.7 4-18.4v-73.8c0-13.6-5.9-25.4-14.5-31.8v-5.1c0-4.9-1.6-9.6-4.3-13-2.8-3.5-6.5-5.4-10.3-5.4-3.9 0-7.6 1.9-10.4 5.4-2.7 3.4-4.2 8.1-4.2 13v5.1c-2.2 1.6-4.3 3.6-6.1 5.8-1.8 2.3-3.3 4.8-4.6 7.6-1.3 2.8-2.2 5.8-2.9 8.9-0.7 3.1-1 6.3-1 9.5v73.8c0 6.7 1.5 13 4 18.4h-11.3c-1.9 0-3.8 1-5.2 2.7-1.3 1.7-2.1 4.1-2.1 6.5 0 2.5 0.8 4.8 2.1 6.6 1.4 1.7 3.3 2.7 5.2 2.7h72.9c2 0 3.8-1 5.2-2.7 1.4-1.8 2.1-4.1 2.1-6.6 0-2.4-0.7-4.8-2.1-6.5-1.4-1.7-3.2-2.7-5.2-2.7z"/><path class="b" d="m410.9 438.2c0 2.4 0.4 4.8 1.1 7.1 0.8 2.2 1.9 4.3 3.2 6 1.4 1.7 3 3 4.7 4 1.8 0.9 3.7 1.4 5.6 1.4h73c3.8 0 7.5-2 10.3-5.4 2.7-3.5 4.3-8.2 4.3-13.1 0-4.9-1.6-9.6-4.3-13-2.8-3.5-6.5-5.4-10.3-5.4h-73c-1.9 0-3.8 0.5-5.6 1.4-1.7 0.9-3.3 2.3-4.7 4-1.3 1.7-2.4 3.7-3.2 6-0.7 2.2-1.1 4.6-1.1 7z"/><path class="f" d="m440.1 438.2c0 9.7-1.5 19.3-4.4 28.3-3 8.9-7.3 17-12.7 23.9-5.4 6.8-11.8 12.3-18.9 16-7.1 3.7-14.7 5.6-22.3 5.6h-233.4c-7.7 0-15.3-1.9-22.4-5.6-7.1-3.7-13.5-9.2-18.9-16-5.4-6.9-9.7-15-12.7-23.9-2.9-9-4.4-18.6-4.4-28.3v-184.4c0-9.7 1.5-19.3 4.4-28.3 3-8.9 7.3-17 12.7-23.9 5.4-6.8 11.8-12.3 18.9-16 7.1-3.7 14.7-5.6 22.4-5.6h233.4c7.6 0 15.2 1.9 22.3 5.6 7.1 3.7 13.5 9.2 18.9 16 5.4 6.9 9.7 15 12.7 23.9 2.9 9 4.4 18.6 4.4 28.3z"/><path class="g" d="m410.9 438.2c0 4.9-0.7 9.7-2.2 14.1-1.5 4.5-3.6 8.6-6.3 12-2.7 3.4-5.9 6.1-9.5 8-3.5 1.9-7.3 2.8-11.1 2.8h-233.4c-3.9 0-7.7-0.9-11.2-2.8-3.6-1.9-6.8-4.6-9.5-8-2.7-3.4-4.8-7.5-6.3-12-1.5-4.4-2.2-9.2-2.2-14.1v-184.4c0-4.9 0.7-9.7 2.2-14.1 1.5-4.5 3.6-8.6 6.3-12 2.7-3.4 5.9-6.1 9.5-8 3.5-1.9 7.3-2.8 11.2-2.8h233.4c3.8 0 7.6 0.9 11.1 2.8 3.6 1.9 6.8 4.6 9.5 8 2.7 3.4 4.8 7.5 6.3 12 1.5 4.4 2.2 9.2 2.2 14.1z"/><path class="d" d="m367.2 272.2v55.4h-131.3v-55.4z"/><path class="h" d="m603.7 815.3h346.6"/><path class="i" d="m738 450.1v365.2h78v-365.2c0-22.4-7.8-40.6-31.2-40.6h-15.6c-23.4 0-31.2 18.2-31.2 40.6z"/><path class="i" d="m621 571.8v243.5h69.3v-243.5c0-22.3-6.9-40.6-27.7-40.6h-13.9c-20.8 0-27.7 18.3-27.7 40.6z"/><path class="i" d="m863.7 673.3v142h69.3v-142c0-22.3-6.9-40.6-27.7-40.6h-13.9c-20.8 0-27.7 18.3-27.7 40.6z"/></svg>